<svg xmlns="http://www.w3.org/2000/svg" version="1.1" xmlns:xlink="http://www.w3.org/1999/xlink" xmlns:svgjs="http://svgjs.dev/svgjs" width="1000" height="1000" viewBox="0 0 1000 1000"><rect width="1000" height="1000" fill="#024178"></rect><g transform="matrix(0.7,0,0,0.7,149.57575757575756,282.1265587044535)"><svg viewBox="0 0 396 247" data-background-color="#024178" preserveAspectRatio="xMidYMid meet" height="623" width="1000" xmlns="http://www.w3.org/2000/svg" xmlns:xlink="http://www.w3.org/1999/xlink"><g id="tight-bounds" transform="matrix(1,0,0,1,0.2400000000000091,-0.09999999999999432)"><svg viewBox="0 0 395.52 247.2" height="247.2" width="395.52"><g><svg></svg></g><g><svg viewBox="0 0 395.52 247.2" height="247.2" width="395.52"><g transform="matrix(1,0,0,1,75.54432,60.91518400949458)"><svg viewBox="0 0 244.43135999999998 125.36963198101083" height="125.36963198101083" width="244.43135999999998"><g><svg viewBox="0 0 244.43135999999998 125.36963198101083" height="125.36963198101083" width="244.43135999999998"><g><svg viewBox="0 0 297.85268174283203 152.7696" height="125.36963198101083" width="244.43135999999998"><g transform="matrix(1,0,0,1,120.75478738081424,0)"><svg viewBox="0 0 177.0978943620178 152.7696" height="152.7696" width="177.0978943620178"><g><svg viewBox="0 0 177.0978943620178 152.7696" height="152.7696" width="177.0978943620178"><g><svg viewBox="0 0 177.0978943620178 152.7696" height="152.7696" width="177.0978943620178"><g transform="matrix(1,0,0,1,0,0)"><svg width="177.0978943620178" viewBox="1.8499999999999956 -35.050000000000004 175.79999999999998 145.4" height="152.7696" data-palette-color="#f8fafc"><svg></svg><svg></svg><svg></svg><g class="undefined-text-0" data-fill-palette-color="primary" id="text-0"><path d="M11.8-28.25v21.9c0.367 0.033 0.793 0.057 1.28 0.07 0.48 0.02 1.053 0.03 1.72 0.03v0c3.9 0 6.793-0.983 8.68-2.95 1.88-1.967 2.82-4.683 2.82-8.15v0c0-3.633-0.9-6.383-2.7-8.25-1.8-1.867-4.65-2.8-8.55-2.8v0c-0.533 0-1.083 0.007-1.65 0.02-0.567 0.02-1.1 0.063-1.6 0.13zM34.35-17.35v0c0 3-0.467 5.617-1.4 7.85-0.933 2.233-2.257 4.083-3.97 5.55-1.72 1.467-3.813 2.567-6.28 3.3-2.467 0.733-5.233 1.1-8.3 1.1v0c-1.4 0-3.033-0.057-4.9-0.17-1.867-0.12-3.7-0.363-5.5-0.73v0-33.75c1.8-0.333 3.677-0.56 5.63-0.68 1.947-0.113 3.62-0.17 5.02-0.17v0c2.967 0 5.66 0.333 8.08 1 2.413 0.667 4.487 1.717 6.22 3.15 1.733 1.433 3.067 3.267 4 5.5 0.933 2.233 1.4 4.917 1.4 8.05zM50.4-5.2v0c0.733 0 1.433-0.017 2.1-0.05 0.667-0.033 1.2-0.083 1.6-0.15v0-5.65c-0.3-0.067-0.75-0.133-1.35-0.2-0.6-0.067-1.15-0.1-1.65-0.1v0c-0.7 0-1.357 0.04-1.97 0.12-0.62 0.087-1.163 0.247-1.63 0.48-0.467 0.233-0.833 0.55-1.1 0.95-0.267 0.4-0.4 0.9-0.4 1.5v0c0 1.167 0.393 1.973 1.18 2.42 0.78 0.453 1.853 0.68 3.22 0.68zM49.8-27v0c2.2 0 4.033 0.25 5.5 0.75 1.467 0.5 2.643 1.217 3.53 2.15 0.88 0.933 1.503 2.067 1.87 3.4 0.367 1.333 0.55 2.817 0.55 4.45v0 15.5c-1.067 0.233-2.55 0.51-4.45 0.83-1.9 0.313-4.2 0.47-6.9 0.47v0c-1.7 0-3.24-0.15-4.62-0.45-1.387-0.3-2.58-0.793-3.58-1.48-1-0.68-1.767-1.57-2.3-2.67-0.533-1.1-0.8-2.45-0.8-4.05v0c0-1.533 0.307-2.833 0.92-3.9 0.62-1.067 1.447-1.917 2.48-2.55 1.033-0.633 2.217-1.093 3.55-1.38 1.333-0.28 2.717-0.42 4.15-0.42v0c0.967 0 1.827 0.04 2.58 0.12 0.747 0.087 1.353 0.197 1.82 0.33v0-0.7c0-1.267-0.383-2.283-1.15-3.05-0.767-0.767-2.1-1.15-4-1.15v0c-1.267 0-2.517 0.09-3.75 0.27-1.233 0.187-2.3 0.447-3.2 0.78v0l-0.95-6c0.433-0.133 0.977-0.277 1.63-0.43 0.647-0.147 1.353-0.28 2.12-0.4 0.767-0.113 1.577-0.213 2.43-0.3 0.847-0.08 1.703-0.12 2.57-0.12zM67.75-10.75v-22.1l7.45-1.2v7.75h8.95v6.2h-8.95v9.25c0 1.567 0.277 2.817 0.83 3.75 0.547 0.933 1.653 1.4 3.32 1.4v0c0.8 0 1.627-0.077 2.48-0.23 0.847-0.147 1.62-0.353 2.32-0.62v0l1.05 5.8c-0.9 0.367-1.9 0.683-3 0.95-1.1 0.267-2.45 0.4-4.05 0.4v0c-2.033 0-3.717-0.277-5.05-0.83-1.333-0.547-2.4-1.313-3.2-2.3-0.8-0.98-1.36-2.17-1.68-3.57-0.313-1.4-0.47-2.95-0.47-4.65zM99.25-5.2v0c0.733 0 1.433-0.017 2.1-0.05 0.667-0.033 1.2-0.083 1.6-0.15v0-5.65c-0.3-0.067-0.75-0.133-1.35-0.2-0.6-0.067-1.15-0.1-1.65-0.1v0c-0.7 0-1.357 0.04-1.97 0.12-0.62 0.087-1.163 0.247-1.63 0.48-0.467 0.233-0.833 0.55-1.1 0.95-0.267 0.4-0.4 0.9-0.4 1.5v0c0 1.167 0.393 1.973 1.18 2.42 0.78 0.453 1.853 0.68 3.22 0.68zM98.65-27v0c2.2 0 4.033 0.25 5.5 0.75 1.467 0.5 2.643 1.217 3.53 2.15 0.88 0.933 1.503 2.067 1.87 3.4 0.367 1.333 0.55 2.817 0.55 4.45v0 15.5c-1.067 0.233-2.55 0.51-4.45 0.83-1.9 0.313-4.2 0.47-6.9 0.47v0c-1.7 0-3.24-0.15-4.62-0.45-1.387-0.3-2.58-0.793-3.58-1.48-1-0.68-1.767-1.57-2.3-2.67-0.533-1.1-0.8-2.45-0.8-4.05v0c0-1.533 0.31-2.833 0.93-3.9 0.613-1.067 1.437-1.917 2.47-2.55 1.033-0.633 2.217-1.093 3.55-1.38 1.333-0.28 2.717-0.42 4.15-0.42v0c0.967 0 1.827 0.04 2.58 0.12 0.747 0.087 1.353 0.197 1.82 0.33v0-0.7c0-1.267-0.383-2.283-1.15-3.05-0.767-0.767-2.1-1.15-4-1.15v0c-1.267 0-2.517 0.09-3.75 0.27-1.233 0.187-2.3 0.447-3.2 0.78v0l-0.95-6c0.433-0.133 0.977-0.277 1.63-0.43 0.647-0.147 1.353-0.28 2.12-0.4 0.767-0.113 1.577-0.213 2.43-0.3 0.847-0.08 1.703-0.12 2.57-0.12z" fill="#f8fafc" fill-rule="nonzero" stroke="none" stroke-width="1" stroke-linecap="butt" stroke-linejoin="miter" stroke-miterlimit="10" stroke-dasharray="" stroke-dashoffset="0" font-family="none" font-weight="none" font-size="none" text-anchor="none" style="mix-blend-mode: normal" data-fill-palette-color="primary" opacity="1"></path><path transform="translate(0,50.55)" d="M14.9-38.8v0c1.4 0 2.683 0.14 3.85 0.42 1.167 0.287 2.067 0.563 2.7 0.83v0l-1.45 5.95c-0.667-0.3-1.393-0.523-2.18-0.67-0.78-0.153-1.503-0.23-2.17-0.23v0c-0.9 0-1.657 0.123-2.27 0.37-0.62 0.253-1.103 0.597-1.45 1.03-0.353 0.433-0.603 0.95-0.75 1.55-0.153 0.6-0.23 1.25-0.23 1.95v0 1.3h9.2v6.2h-9.2v20.1h-7.45v-27.7c0-3.4 0.96-6.1 2.88-8.1 1.913-2 4.753-3 8.52-3zM48.8-13.2v0c0 2.067-0.3 3.957-0.9 5.67-0.6 1.72-1.467 3.187-2.6 4.4-1.133 1.22-2.49 2.163-4.07 2.83-1.587 0.667-3.363 1-5.33 1v0c-1.933 0-3.69-0.333-5.27-1-1.587-0.667-2.947-1.61-4.08-2.83-1.133-1.213-2.017-2.68-2.65-4.4-0.633-1.713-0.95-3.603-0.95-5.67v0c0-2.067 0.327-3.95 0.98-5.65 0.647-1.7 1.547-3.15 2.7-4.35 1.147-1.2 2.513-2.133 4.1-2.8 1.58-0.667 3.303-1 5.17-1v0c1.9 0 3.643 0.333 5.23 1 1.58 0.667 2.937 1.6 4.07 2.8 1.133 1.2 2.017 2.65 2.65 4.35 0.633 1.7 0.95 3.583 0.95 5.65zM41.2-13.2v0c0-2.3-0.457-4.11-1.37-5.43-0.92-1.313-2.23-1.97-3.93-1.97v0c-1.7 0-3.017 0.657-3.95 1.97-0.933 1.32-1.4 3.13-1.4 5.43v0c0 2.3 0.467 4.123 1.4 5.47 0.933 1.353 2.25 2.03 3.95 2.03v0c1.7 0 3.01-0.677 3.93-2.03 0.913-1.347 1.37-3.17 1.37-5.47zM71.65-25.85l-1.25 6.15c-0.667-0.167-1.45-0.343-2.35-0.53-0.9-0.18-1.867-0.27-2.9-0.27v0c-0.467 0-1.023 0.04-1.67 0.12-0.653 0.087-1.147 0.18-1.48 0.28v0 20.1h-7.45v-24.9c1.333-0.467 2.91-0.91 4.73-1.33 1.813-0.413 3.837-0.62 6.07-0.62v0c0.4 0 0.883 0.023 1.45 0.07 0.567 0.053 1.133 0.12 1.7 0.2 0.567 0.087 1.133 0.187 1.7 0.3 0.567 0.12 1.05 0.263 1.45 0.43z" fill="#f8fafc" fill-rule="nonzero" stroke="none" stroke-width="1" stroke-linecap="butt" stroke-linejoin="miter" stroke-miterlimit="10" stroke-dasharray="" stroke-dashoffset="0" font-family="none" font-weight="none" font-size="none" text-anchor="none" style="mix-blend-mode: normal" data-fill-palette-color="primary" opacity="1"></path><path transform="translate(0,101.1)" d="M13.45-5.95v0c1.1 0 2.01-0.093 2.73-0.28 0.713-0.18 1.287-0.43 1.72-0.75 0.433-0.313 0.733-0.687 0.9-1.12 0.167-0.433 0.25-0.917 0.25-1.45v0c0-1.133-0.533-2.077-1.6-2.83-1.067-0.747-2.9-1.553-5.5-2.42v0c-1.133-0.4-2.267-0.86-3.4-1.38-1.133-0.513-2.15-1.163-3.05-1.95-0.9-0.78-1.633-1.73-2.2-2.85-0.567-1.113-0.85-2.47-0.85-4.07v0c0-1.6 0.3-3.043 0.9-4.33 0.6-1.28 1.45-2.37 2.55-3.27 1.1-0.9 2.433-1.593 4-2.08 1.567-0.48 3.333-0.72 5.3-0.72v0c2.333 0 4.35 0.25 6.05 0.75 1.7 0.5 3.1 1.05 4.2 1.65v0l-2.25 6.15c-0.967-0.5-2.04-0.943-3.22-1.33-1.187-0.38-2.613-0.57-4.28-0.57v0c-1.867 0-3.207 0.257-4.02 0.77-0.82 0.52-1.23 1.313-1.23 2.38v0c0 0.633 0.15 1.167 0.45 1.6 0.3 0.433 0.727 0.823 1.28 1.17 0.547 0.353 1.18 0.67 1.9 0.95 0.713 0.287 1.503 0.58 2.37 0.88v0c1.8 0.667 3.367 1.327 4.7 1.98 1.333 0.647 2.443 1.403 3.33 2.27 0.88 0.867 1.537 1.883 1.97 3.05 0.433 1.167 0.65 2.583 0.65 4.25v0c0 3.233-1.133 5.74-3.4 7.52-2.267 1.787-5.683 2.68-10.25 2.68v0c-1.533 0-2.917-0.09-4.15-0.27-1.233-0.187-2.323-0.413-3.27-0.68-0.953-0.267-1.77-0.55-2.45-0.85-0.687-0.3-1.263-0.583-1.73-0.85v0l2.2-6.2c1.033 0.567 2.31 1.073 3.83 1.52 1.513 0.453 3.37 0.68 5.57 0.68zM57.2-13.2v0c0 2.067-0.3 3.957-0.9 5.67-0.6 1.72-1.467 3.187-2.6 4.4-1.133 1.22-2.49 2.163-4.07 2.83-1.587 0.667-3.363 1-5.33 1v0c-1.933 0-3.69-0.333-5.27-1-1.587-0.667-2.947-1.61-4.08-2.83-1.133-1.213-2.017-2.68-2.65-4.4-0.633-1.713-0.95-3.603-0.95-5.67v0c0-2.067 0.327-3.95 0.98-5.65 0.647-1.7 1.547-3.15 2.7-4.35 1.147-1.2 2.513-2.133 4.1-2.8 1.58-0.667 3.303-1 5.17-1v0c1.9 0 3.643 0.333 5.23 1 1.58 0.667 2.937 1.6 4.07 2.8 1.133 1.2 2.017 2.65 2.65 4.35 0.633 1.7 0.95 3.583 0.95 5.65zM49.6-13.2v0c0-2.3-0.457-4.11-1.37-5.43-0.92-1.313-2.23-1.97-3.93-1.97v0c-1.7 0-3.017 0.657-3.95 1.97-0.933 1.32-1.4 3.13-1.4 5.43v0c0 2.3 0.467 4.123 1.4 5.47 0.933 1.353 2.25 2.03 3.95 2.03v0c1.7 0 3.01-0.677 3.93-2.03 0.913-1.347 1.37-3.17 1.37-5.47zM61.7-13.15v0c0-1.9 0.31-3.693 0.93-5.38 0.613-1.68 1.503-3.147 2.67-4.4 1.167-1.247 2.583-2.237 4.25-2.97 1.667-0.733 3.567-1.1 5.7-1.1v0c1.4 0 2.683 0.123 3.85 0.37 1.167 0.253 2.3 0.613 3.4 1.08v0l-1.55 5.95c-0.7-0.267-1.467-0.5-2.3-0.7-0.833-0.2-1.767-0.3-2.8-0.3v0c-2.2 0-3.84 0.683-4.92 2.05-1.087 1.367-1.63 3.167-1.63 5.4v0c0 2.367 0.51 4.2 1.53 5.5 1.013 1.3 2.787 1.95 5.32 1.95v0c0.9 0 1.867-0.083 2.9-0.25 1.033-0.167 1.983-0.433 2.85-0.8v0l1.05 6.1c-0.867 0.367-1.95 0.683-3.25 0.95-1.3 0.267-2.733 0.4-4.3 0.4v0c-2.4 0-4.467-0.36-6.2-1.08-1.733-0.713-3.16-1.687-4.28-2.92-1.113-1.233-1.927-2.693-2.44-4.38-0.52-1.68-0.78-3.503-0.78-5.47zM95.4-26.3v26.3h-7.45v-26.3zM96.1-33.9v0c0 1.367-0.44 2.44-1.32 3.22-0.887 0.787-1.93 1.18-3.13 1.18v0c-1.2 0-2.24-0.393-3.12-1.18-0.887-0.78-1.33-1.853-1.33-3.22v0c0-1.367 0.443-2.443 1.33-3.23 0.88-0.78 1.92-1.17 3.12-1.17v0c1.2 0 2.243 0.39 3.13 1.17 0.88 0.787 1.32 1.863 1.32 3.23zM101.15-12.95v0c0-2.333 0.36-4.373 1.08-6.12 0.713-1.753 1.653-3.213 2.82-4.38 1.167-1.167 2.51-2.05 4.03-2.65 1.513-0.6 3.07-0.9 4.67-0.9v0c3.733 0 6.683 1.14 8.85 3.42 2.167 2.287 3.25 5.647 3.25 10.08v0c0 0.433-0.017 0.907-0.05 1.42-0.033 0.52-0.067 0.98-0.1 1.38v0h-16.9c0.167 1.533 0.883 2.75 2.15 3.65 1.267 0.9 2.967 1.35 5.1 1.35v0c1.367 0 2.71-0.127 4.03-0.38 1.313-0.247 2.387-0.553 3.22-0.92v0l1 6.05c-0.4 0.2-0.933 0.4-1.6 0.6-0.667 0.2-1.407 0.377-2.22 0.53-0.82 0.147-1.697 0.27-2.63 0.37-0.933 0.1-1.867 0.15-2.8 0.15v0c-2.367 0-4.423-0.35-6.17-1.05-1.753-0.7-3.203-1.66-4.35-2.88-1.153-1.213-2.003-2.653-2.55-4.32-0.553-1.667-0.83-3.467-0.83-5.4zM108.8-15.8h9.85c-0.033-0.633-0.14-1.25-0.32-1.85-0.187-0.6-0.47-1.133-0.85-1.6-0.387-0.467-0.87-0.85-1.45-1.15-0.587-0.3-1.313-0.45-2.18-0.45v0c-0.833 0-1.55 0.14-2.15 0.42-0.6 0.287-1.1 0.663-1.5 1.13-0.4 0.467-0.707 1.007-0.92 1.62-0.22 0.62-0.38 1.247-0.48 1.88zM131.35-10.75v-22.1l7.45-1.2v7.75h8.95v6.2h-8.95v9.25c0 1.567 0.277 2.817 0.83 3.75 0.547 0.933 1.653 1.4 3.32 1.4v0c0.8 0 1.627-0.077 2.48-0.23 0.847-0.147 1.62-0.353 2.32-0.62v0l1.05 5.8c-0.9 0.367-1.9 0.683-3 0.95-1.1 0.267-2.45 0.4-4.05 0.4v0c-2.033 0-3.717-0.277-5.05-0.83-1.333-0.547-2.4-1.313-3.2-2.3-0.8-0.98-1.357-2.17-1.67-3.57-0.32-1.4-0.48-2.95-0.48-4.65zM169.95-26.3h7.7c-1.5 5.067-3.067 9.817-4.7 14.25-1.633 4.433-3.417 8.733-5.35 12.9v0c-0.7 1.5-1.4 2.773-2.1 3.82-0.7 1.053-1.467 1.923-2.3 2.61-0.833 0.68-1.773 1.18-2.82 1.5-1.053 0.313-2.28 0.47-3.68 0.47v0c-1.167 0-2.24-0.107-3.22-0.32-0.987-0.22-1.797-0.463-2.43-0.73v0l1.3-5.95c0.767 0.267 1.45 0.45 2.05 0.55 0.6 0.1 1.233 0.15 1.9 0.15v0c1.333 0 2.36-0.357 3.08-1.07 0.713-0.72 1.32-1.713 1.82-2.98v0c-1.7-3.333-3.4-7.077-5.1-11.23-1.7-4.147-3.3-8.803-4.8-13.97v0h7.9c0.333 1.3 0.727 2.707 1.18 4.22 0.447 1.52 0.92 3.053 1.42 4.6 0.5 1.553 1.01 3.063 1.53 4.53 0.513 1.467 1.003 2.8 1.47 4v0c0.433-1.2 0.883-2.533 1.35-4 0.467-1.467 0.927-2.977 1.38-4.53 0.447-1.547 0.88-3.08 1.3-4.6 0.413-1.513 0.787-2.92 1.12-4.22z" fill="#f8fafc" fill-rule="nonzero" stroke="none" stroke-width="1" stroke-linecap="butt" stroke-linejoin="miter" stroke-miterlimit="10" stroke-dasharray="" stroke-dashoffset="0" font-family="none" font-weight="none" font-size="none" text-anchor="none" style="mix-blend-mode: normal" data-fill-palette-color="primary" opacity="1"></path></g></svg></g></svg></g></svg></g></svg></g><g transform="matrix(1,0,0,1,0,21.661059305846315)"><svg viewBox="0 0 109.446498715727 109.44748138830737" height="109.44748138830737" width="109.446498715727"><g><svg xmlns="http://www.w3.org/2000/svg" xmlns:xlink="http://www.w3.org/1999/xlink" version="1.1" x="0" y="0" viewBox="2 1.999461286057446 60 60.000538713942554" style="enable-background:new 0 0 64 64;" xml:space="preserve" height="109.44748138830737" width="109.446498715727" class="icon-icon-0" data-fill-palette-color="accent" id="icon-0"><path d="M16 13.38C16 10.961 14.039 9 11.62 9c1.063-0.929 1.647-2.391 1.259-3.989-0.347-1.427-1.513-2.581-2.945-2.906C7.319 1.514 5 3.486 5 6c0 1.202 0.541 2.267 1.38 3C3.961 9 2 10.961 2 13.38V21h14V13.38z" fill="#f8fafc" data-fill-palette-color="accent"></path><path d="M57.62 9c1.063-0.929 1.647-2.391 1.259-3.989-0.347-1.427-1.513-2.581-2.945-2.906C53.319 1.514 51 3.486 51 6c0 1.202 0.541 2.267 1.38 3C49.961 9 48 10.961 48 13.38V21h14v-7.62C62 10.961 60.039 9 57.62 9z" fill="#f8fafc" data-fill-palette-color="accent"></path><path d="M16 54.38c0-2.419-1.961-4.38-4.38-4.38 1.063-0.929 1.647-2.391 1.259-3.989-0.347-1.427-1.513-2.581-2.945-2.906C7.319 42.514 5 44.486 5 47c0 1.202 0.541 2.267 1.38 3C3.961 50 2 51.961 2 54.38V62h14V54.38z" fill="#f8fafc" data-fill-palette-color="accent"></path><path d="M57.62 50c1.063-0.929 1.647-2.391 1.259-3.989-0.347-1.427-1.513-2.581-2.945-2.906C53.319 42.514 51 44.486 51 47c0 1.202 0.541 2.267 1.38 3C49.961 50 48 51.961 48 54.38V62h14v-7.62C62 51.961 60.039 50 57.62 50z" fill="#f8fafc" data-fill-palette-color="accent"></path><path d="M26 41h4l5 5v-5h4c1.105 0 2-0.895 2-2v-9c0-1.105-0.895-2-2-2H26c-1.105 0-2 0.895-2 2v9C24 40.105 24.895 41 26 41zM38 37h-7v-2h7V37zM34 31h4v2h-4V31zM27 31h5v2h-5V31zM27 35h2v2h-2V35z" fill="#f8fafc" data-fill-palette-color="accent"></path><path d="M32 51c8.284 0 15-6.716 15-15 0-8.284-6.716-15-15-15s-15 6.716-15 15C17 44.284 23.716 51 32 51zM22 30c0-2.206 1.794-4 4-4h13c2.206 0 4 1.794 4 4v9c0 2.206-1.794 4-4 4h-2v3c0 0.809-0.487 1.538-1.235 1.848C35.518 47.95 35.258 48 35 48c-0.521 0-1.032-0.203-1.415-0.586L29.171 43H26c-2.206 0-4-1.794-4-4V30z" fill="#f8fafc" data-fill-palette-color="accent"></path><rect x="20" y="13" width="2" height="2" fill="#f8fafc" data-fill-palette-color="accent"></rect><rect x="24" y="13" width="2" height="2" fill="#f8fafc" data-fill-palette-color="accent"></rect><rect x="24" y="17" width="2" height="2" fill="#f8fafc" data-fill-palette-color="accent"></rect><rect x="42" y="13" width="2" height="2" fill="#f8fafc" data-fill-palette-color="accent"></rect><rect x="38" y="13" width="2" height="2" fill="#f8fafc" data-fill-palette-color="accent"></rect><rect x="38" y="17" width="2" height="2" fill="#f8fafc" data-fill-palette-color="accent"></rect><rect x="42" y="57" width="2" height="2" fill="#f8fafc" data-fill-palette-color="accent"></rect><rect x="38" y="57" width="2" height="2" fill="#f8fafc" data-fill-palette-color="accent"></rect><rect x="38" y="53" width="2" height="2" fill="#f8fafc" data-fill-palette-color="accent"></rect><rect x="20" y="57" width="2" height="2" fill="#f8fafc" data-fill-palette-color="accent"></rect><rect x="24" y="57" width="2" height="2" fill="#f8fafc" data-fill-palette-color="accent"></rect><rect x="24" y="53" width="2" height="2" fill="#f8fafc" data-fill-palette-color="accent"></rect></svg></g></svg></g></svg></g></svg></g></svg></g><path d="M244.533 54.915L244.533 0 0 0 0 247.2 244.533 247.2 244.533 192.285 240.988 192.285 240.988 243.655 3.545 243.655 3.545 3.545 240.988 3.545 240.988 54.915Z" fill="#f8fafc" stroke="transparent" data-fill-palette-color="primary"></path></svg></g><defs></defs></svg><rect width="395.52" height="247.2" fill="none" stroke="none" visibility="hidden"></rect></g></svg></g></svg>